<mxfile host="app.diagrams.net" modified="2023-09-28T19:11:58.945Z" agent="Mozilla/5.0 (X11; Linux x86_64; rv:109.0) Gecko/20100101 Firefox/114.0" etag="tvC1dEzBt1VKHAgSkS9v" version="21.8.2" type="github">
  <diagram name="Página-1" id="9iKefRgzoaWXkJtxmQeY">
    <mxGraphModel dx="1434" dy="795" grid="1" gridSize="10" guides="1" tooltips="1" connect="1" arrows="1" fold="1" page="1" pageScale="1" pageWidth="827" pageHeight="1169" math="0" shadow="0">
      <root>
        <mxCell id="0" />
        <mxCell id="1" parent="0" />
        <mxCell id="MBplnj_kiB30Vxkk3hCD-1" value="Alumnos" style="rounded=0;whiteSpace=wrap;html=1;fillColor=#fff2cc;strokeColor=#d6b656;" vertex="1" parent="1">
          <mxGeometry x="440" y="480" width="80" height="40" as="geometry" />
        </mxCell>
        <mxCell id="MBplnj_kiB30Vxkk3hCD-5" style="edgeStyle=orthogonalEdgeStyle;rounded=0;orthogonalLoop=1;jettySize=auto;html=1;exitX=1;exitY=0.5;exitDx=0;exitDy=0;entryX=0;entryY=0.5;entryDx=0;entryDy=0;endArrow=none;endFill=0;" edge="1" parent="1" source="MBplnj_kiB30Vxkk3hCD-2" target="MBplnj_kiB30Vxkk3hCD-4">
          <mxGeometry relative="1" as="geometry" />
        </mxCell>
        <mxCell id="MBplnj_kiB30Vxkk3hCD-2" value="&lt;div&gt;Profesores&lt;/div&gt;" style="rounded=0;whiteSpace=wrap;html=1;fillColor=#fff2cc;strokeColor=#d6b656;" vertex="1" parent="1">
          <mxGeometry x="120" y="240" width="80" height="40" as="geometry" />
        </mxCell>
        <mxCell id="MBplnj_kiB30Vxkk3hCD-8" style="edgeStyle=orthogonalEdgeStyle;rounded=0;orthogonalLoop=1;jettySize=auto;html=1;exitX=0.5;exitY=1;exitDx=0;exitDy=0;entryX=0.5;entryY=0;entryDx=0;entryDy=0;endArrow=none;endFill=0;" edge="1" parent="1" source="MBplnj_kiB30Vxkk3hCD-3" target="MBplnj_kiB30Vxkk3hCD-7">
          <mxGeometry relative="1" as="geometry" />
        </mxCell>
        <mxCell id="MBplnj_kiB30Vxkk3hCD-31" style="edgeStyle=orthogonalEdgeStyle;orthogonalLoop=1;jettySize=auto;html=1;exitX=0.25;exitY=0;exitDx=0;exitDy=0;entryX=1;entryY=0.5;entryDx=0;entryDy=0;endArrow=none;endFill=0;rounded=1;" edge="1" parent="1" source="MBplnj_kiB30Vxkk3hCD-3" target="MBplnj_kiB30Vxkk3hCD-30">
          <mxGeometry relative="1" as="geometry" />
        </mxCell>
        <mxCell id="MBplnj_kiB30Vxkk3hCD-3" value="&lt;div&gt;Modulos&lt;/div&gt;" style="rounded=0;whiteSpace=wrap;html=1;fillColor=#fff2cc;strokeColor=#d6b656;" vertex="1" parent="1">
          <mxGeometry x="440" y="240" width="80" height="40" as="geometry" />
        </mxCell>
        <mxCell id="MBplnj_kiB30Vxkk3hCD-6" style="edgeStyle=orthogonalEdgeStyle;rounded=0;orthogonalLoop=1;jettySize=auto;html=1;exitX=1;exitY=0.5;exitDx=0;exitDy=0;endArrow=none;endFill=0;" edge="1" parent="1" source="MBplnj_kiB30Vxkk3hCD-4" target="MBplnj_kiB30Vxkk3hCD-3">
          <mxGeometry relative="1" as="geometry" />
        </mxCell>
        <mxCell id="MBplnj_kiB30Vxkk3hCD-4" value="Imparten" style="rhombus;whiteSpace=wrap;html=1;fillColor=#dae8fc;strokeColor=#6c8ebf;" vertex="1" parent="1">
          <mxGeometry x="280" y="240" width="80" height="40" as="geometry" />
        </mxCell>
        <mxCell id="MBplnj_kiB30Vxkk3hCD-9" style="edgeStyle=orthogonalEdgeStyle;rounded=0;orthogonalLoop=1;jettySize=auto;html=1;exitX=0.5;exitY=1;exitDx=0;exitDy=0;entryX=0.5;entryY=0;entryDx=0;entryDy=0;endArrow=none;endFill=0;" edge="1" parent="1" source="MBplnj_kiB30Vxkk3hCD-7" target="MBplnj_kiB30Vxkk3hCD-1">
          <mxGeometry relative="1" as="geometry" />
        </mxCell>
        <mxCell id="MBplnj_kiB30Vxkk3hCD-7" value="estudian" style="rhombus;whiteSpace=wrap;html=1;fillColor=#dae8fc;strokeColor=#6c8ebf;" vertex="1" parent="1">
          <mxGeometry x="440" y="360" width="80" height="40" as="geometry" />
        </mxCell>
        <mxCell id="MBplnj_kiB30Vxkk3hCD-11" style="edgeStyle=orthogonalEdgeStyle;rounded=1;orthogonalLoop=1;jettySize=auto;html=1;exitX=0.5;exitY=1;exitDx=0;exitDy=0;entryX=0;entryY=0.5;entryDx=0;entryDy=0;endArrow=none;endFill=0;" edge="1" parent="1" source="MBplnj_kiB30Vxkk3hCD-10" target="MBplnj_kiB30Vxkk3hCD-2">
          <mxGeometry relative="1" as="geometry" />
        </mxCell>
        <mxCell id="MBplnj_kiB30Vxkk3hCD-10" value="&lt;u&gt;DNI&lt;/u&gt;" style="ellipse;whiteSpace=wrap;html=1;fillColor=#ffe6cc;strokeColor=#d79b00;" vertex="1" parent="1">
          <mxGeometry x="40" y="120" width="80" height="40" as="geometry" />
        </mxCell>
        <mxCell id="MBplnj_kiB30Vxkk3hCD-13" style="edgeStyle=orthogonalEdgeStyle;rounded=1;orthogonalLoop=1;jettySize=auto;html=1;exitX=0;exitY=1;exitDx=0;exitDy=0;entryX=0;entryY=0.25;entryDx=0;entryDy=0;endArrow=none;endFill=0;" edge="1" parent="1" source="MBplnj_kiB30Vxkk3hCD-12" target="MBplnj_kiB30Vxkk3hCD-2">
          <mxGeometry relative="1" as="geometry" />
        </mxCell>
        <mxCell id="MBplnj_kiB30Vxkk3hCD-12" value="nombre" style="ellipse;whiteSpace=wrap;html=1;fillColor=#ffe6cc;strokeColor=#d79b00;" vertex="1" parent="1">
          <mxGeometry x="90" y="170" width="70" height="30" as="geometry" />
        </mxCell>
        <mxCell id="MBplnj_kiB30Vxkk3hCD-18" style="edgeStyle=orthogonalEdgeStyle;rounded=1;orthogonalLoop=1;jettySize=auto;html=1;exitX=0.5;exitY=0;exitDx=0;exitDy=0;entryX=0;entryY=0.5;entryDx=0;entryDy=0;endArrow=none;endFill=0;" edge="1" parent="1" source="MBplnj_kiB30Vxkk3hCD-15" target="MBplnj_kiB30Vxkk3hCD-2">
          <mxGeometry relative="1" as="geometry" />
        </mxCell>
        <mxCell id="MBplnj_kiB30Vxkk3hCD-25" style="edgeStyle=orthogonalEdgeStyle;rounded=1;orthogonalLoop=1;jettySize=auto;html=1;exitX=1;exitY=1;exitDx=0;exitDy=0;endArrow=none;endFill=0;" edge="1" parent="1" source="MBplnj_kiB30Vxkk3hCD-15" target="MBplnj_kiB30Vxkk3hCD-22">
          <mxGeometry relative="1" as="geometry" />
        </mxCell>
        <mxCell id="MBplnj_kiB30Vxkk3hCD-15" value="Dirección" style="ellipse;whiteSpace=wrap;html=1;fillColor=#ffe6cc;strokeColor=#d79b00;" vertex="1" parent="1">
          <mxGeometry x="40" y="360" width="80" height="40" as="geometry" />
        </mxCell>
        <mxCell id="MBplnj_kiB30Vxkk3hCD-20" style="edgeStyle=orthogonalEdgeStyle;rounded=1;orthogonalLoop=1;jettySize=auto;html=1;exitX=0;exitY=0;exitDx=0;exitDy=0;entryX=0;entryY=0.75;entryDx=0;entryDy=0;endArrow=none;endFill=0;" edge="1" parent="1" source="MBplnj_kiB30Vxkk3hCD-19" target="MBplnj_kiB30Vxkk3hCD-2">
          <mxGeometry relative="1" as="geometry" />
        </mxCell>
        <mxCell id="MBplnj_kiB30Vxkk3hCD-19" value="teléfono" style="ellipse;whiteSpace=wrap;html=1;fillColor=#ffe6cc;strokeColor=#d79b00;" vertex="1" parent="1">
          <mxGeometry x="90" y="330" width="70" height="30" as="geometry" />
        </mxCell>
        <mxCell id="MBplnj_kiB30Vxkk3hCD-24" style="edgeStyle=orthogonalEdgeStyle;rounded=1;orthogonalLoop=1;jettySize=auto;html=1;exitX=0.5;exitY=0;exitDx=0;exitDy=0;entryX=0;entryY=1;entryDx=0;entryDy=0;endArrow=none;endFill=0;" edge="1" parent="1" source="MBplnj_kiB30Vxkk3hCD-21" target="MBplnj_kiB30Vxkk3hCD-15">
          <mxGeometry relative="1" as="geometry" />
        </mxCell>
        <mxCell id="MBplnj_kiB30Vxkk3hCD-21" value="calle" style="ellipse;whiteSpace=wrap;html=1;fillColor=#f8cecc;strokeColor=#b85450;" vertex="1" parent="1">
          <mxGeometry x="10" y="420" width="50" height="30" as="geometry" />
        </mxCell>
        <mxCell id="MBplnj_kiB30Vxkk3hCD-22" value="&lt;div&gt;numero&lt;/div&gt;" style="ellipse;whiteSpace=wrap;html=1;fillColor=#f8cecc;strokeColor=#b85450;" vertex="1" parent="1">
          <mxGeometry x="100" y="420" width="50" height="30" as="geometry" />
        </mxCell>
        <mxCell id="MBplnj_kiB30Vxkk3hCD-27" style="edgeStyle=orthogonalEdgeStyle;rounded=0;orthogonalLoop=1;jettySize=auto;html=1;exitX=0.5;exitY=0;exitDx=0;exitDy=0;entryX=0.5;entryY=1;entryDx=0;entryDy=0;endArrow=none;endFill=0;" edge="1" parent="1" source="MBplnj_kiB30Vxkk3hCD-26" target="MBplnj_kiB30Vxkk3hCD-15">
          <mxGeometry relative="1" as="geometry" />
        </mxCell>
        <mxCell id="MBplnj_kiB30Vxkk3hCD-26" value="piso" style="ellipse;whiteSpace=wrap;html=1;fillColor=#f8cecc;strokeColor=#b85450;" vertex="1" parent="1">
          <mxGeometry x="55" y="450" width="50" height="30" as="geometry" />
        </mxCell>
        <mxCell id="MBplnj_kiB30Vxkk3hCD-29" style="edgeStyle=orthogonalEdgeStyle;rounded=0;orthogonalLoop=1;jettySize=auto;html=1;exitX=0.5;exitY=1;exitDx=0;exitDy=0;endArrow=none;endFill=0;" edge="1" parent="1" source="MBplnj_kiB30Vxkk3hCD-28" target="MBplnj_kiB30Vxkk3hCD-3">
          <mxGeometry relative="1" as="geometry" />
        </mxCell>
        <mxCell id="MBplnj_kiB30Vxkk3hCD-28" value="&lt;i&gt;&lt;u&gt;CODIGO&lt;/u&gt;&lt;/i&gt;" style="ellipse;whiteSpace=wrap;html=1;fillColor=#ffe6cc;strokeColor=#d79b00;" vertex="1" parent="1">
          <mxGeometry x="440" y="120" width="80" height="40" as="geometry" />
        </mxCell>
        <mxCell id="MBplnj_kiB30Vxkk3hCD-30" value="nombre" style="ellipse;whiteSpace=wrap;html=1;fillColor=#ffe6cc;strokeColor=#d79b00;" vertex="1" parent="1">
          <mxGeometry x="360" y="180" width="80" height="30" as="geometry" />
        </mxCell>
      </root>
    </mxGraphModel>
  </diagram>
</mxfile>
